<?xml version="1.0" standalone="no"?>
<!DOCTYPE svg PUBLIC "-//W3C//DTD SVG 20010904//EN"
 "http://www.w3.org/TR/2001/REC-SVG-20010904/DTD/svg10.dtd">
<svg version="1.0" xmlns="http://www.w3.org/2000/svg"
 width="295.000000pt" height="171.000000pt" viewBox="0 0 295.000000 171.000000"
 preserveAspectRatio="xMidYMid meet">

<g transform="translate(0.000000,171.000000) scale(0.100000,-0.100000)"
fill="#000000" stroke="none">
<path d="M1 1694 c0 -11 3 -14 6 -6 3 7 2 16 -1 19 -3 4 -6 -2 -5 -13z"/>
<path d="M149 1703 c-11 -3 -15 -16 -15 -48 1 -25 6 -45 11 -46 6 0 1 -4 -10
-9 -18 -7 -18 -8 8 -15 15 -4 27 -13 27 -21 0 -8 3 -14 8 -14 7 0 34 -51 29
-55 -1 -2 -48 -6 -104 -11 -85 -7 -101 -11 -94 -23 9 -14 80 -17 136 -6 11 2
39 4 63 4 l42 1 0 75 c0 43 4 75 10 75 6 0 10 -34 10 -83 l0 -82 -47 -2 c-27
-2 -79 -5 -118 -8 -38 -2 -78 -5 -87 -5 -26 0 -24 -50 2 -57 12 -3 20 -14 20
-25 0 -16 -3 -18 -13 -9 -8 6 -17 8 -20 4 -10 -9 -9 -433 1 -433 4 0 65 -7
136 -15 105 -13 131 -13 138 -3 4 8 8 8 8 2 0 -6 -3 -14 -7 -18 -4 -4 -6 -27
-4 -51 2 -35 -1 -45 -13 -45 -8 0 -16 8 -19 18 -3 14 -6 12 -16 -10 -11 -22
-11 -31 3 -59 9 -17 16 -41 16 -51 0 -17 -5 -19 -30 -13 -32 7 -44 -10 -12
-18 13 -4 11 -5 -6 -6 -25 -1 -25 -10 8 -110 17 -52 17 -84 -3 -108 -7 -10 4
-13 53 -13 61 0 62 -1 108 -49 26 -27 61 -57 77 -66 l30 -16 -28 6 c-18 4 -26
2 -23 -4 4 -6 -10 -13 -31 -16 -21 -4 -76 -18 -123 -33 l-85 -26 45 -8 c25 -5
54 -9 65 -10 11 0 67 -7 125 -14 175 -21 683 -25 703 -5 6 6 51 11 102 11 108
1 317 24 342 39 11 6 13 11 5 11 -7 0 -11 4 -8 9 3 4 38 12 78 15 109 11 607
96 653 112 24 8 82 14 145 14 132 0 218 14 236 37 27 35 52 89 59 128 12 74
15 85 27 82 7 -1 12 3 13 8 0 6 8 21 17 34 l17 24 3 -38 3 -38 48 1 c26 0 56
1 67 1 19 1 20 8 20 152 l0 151 -65 -5 -65 -5 0 121 c0 87 -3 118 -11 110 -6
-6 -11 -48 -11 -94 0 -55 -3 -77 -8 -64 -5 11 -9 30 -9 43 -1 16 -7 22 -23 22
-12 0 -18 3 -15 6 3 4 2 15 -3 25 -8 14 -19 17 -50 14 -22 -3 -52 0 -65 5 -17
6 -25 6 -25 -1 0 -10 -24 -8 -130 9 -49 8 -47 12 18 32 34 11 48 11 63 2 13
-8 19 -9 19 -1 0 5 5 7 10 4 6 -3 10 -1 10 4 0 6 7 11 15 11 28 0 15 19 -45
68 -118 95 -263 153 -485 192 -111 19 -364 9 -560 -24 -49 -8 -137 -22 -194
-30 -63 -10 -122 -26 -152 -41 l-49 -24 0 204 0 205 -46 0 c-46 0 -46 0 -24
-18 21 -17 21 -21 11 -77 -6 -32 -11 -75 -11 -96 0 -35 -2 -37 -36 -41 -20 -2
-38 0 -40 7 -5 12 -246 -2 -254 -15 -3 -5 -44 -12 -91 -16 -74 -6 -87 -4 -92
10 -6 14 3 21 26 17 4 0 7 6 7 14 0 10 -10 15 -30 15 -26 0 -31 5 -37 30 -3
17 -10 33 -14 36 -5 3 -9 16 -9 30 0 13 -4 24 -10 24 -5 0 -10 -7 -10 -16 0
-9 -6 -14 -12 -11 -8 2 -12 18 -10 43 3 37 2 38 -12 19 -15 -20 -15 -20 -16 3
0 13 6 22 16 22 8 0 12 4 9 10 -6 9 -247 11 -286 3z m111 -15 c0 -4 -15 -8
-32 -7 -26 0 -29 2 -13 8 25 10 45 10 45 -1z m140 -161 c0 -26 -15 -12 -25 23
-7 22 -6 23 9 11 9 -7 16 -23 16 -34z m47 -4 c-3 -10 -5 -2 -5 17 0 19 2 27 5
18 2 -10 2 -26 0 -35z m-147 -8 c0 -8 -4 -15 -10 -15 -5 0 -10 7 -10 15 0 8 5
15 10 15 6 0 10 -7 10 -15z m154 -41 c3 -8 2 -12 -4 -9 -6 3 -10 10 -10 16 0
14 7 11 14 -7z m-381 -61 c-7 -2 -19 -2 -25 0 -7 3 -2 5 12 5 14 0 19 -2 13
-5z m1845 0 c-10 -2 -28 -2 -40 0 -13 2 -5 4 17 4 22 1 32 -1 23 -4z m-187
-14 c-46 -9 -82 -35 -108 -80 -13 -21 -23 -27 -49 -26 l-33 1 31 38 c43 55 89
76 163 76 l40 0 -44 -9z m189 -3 c0 -2 -7 -7 -16 -10 -8 -3 -12 -2 -9 4 6 10
25 14 25 6z m-110 -101 c-17 -25 -35 -45 -41 -45 -6 0 -6 4 0 13 6 6 22 27 37
45 38 47 40 39 4 -13z m-436 4 c-3 -5 -16 -9 -30 -9 -14 0 -23 4 -20 9 3 5 17
9 31 9 13 0 22 -4 19 -9z m369 -44 c-3 -9 -8 -14 -10 -11 -3 3 -2 9 2 15 9 16
15 13 8 -4z m150 -52 c-7 -2 -19 -2 -25 0 -7 3 -2 5 12 5 14 0 19 -2 13 -5z
m47 -9 c0 -2 -7 -4 -15 -4 -8 0 -15 4 -15 10 0 5 7 7 15 4 8 -4 15 -8 15 -10z
m-1000 -18 c0 -2 -8 -10 -17 -17 -16 -13 -17 -12 -4 4 13 16 21 21 21 13z
m-210 -31 c19 -7 33 -14 30 -15 -31 -9 -49 -7 -54 6 -4 9 -13 14 -21 10 -8 -3
-15 -1 -15 4 0 13 17 12 60 -5z m108 8 c-15 -2 -42 -2 -60 0 -18 2 -6 4 27 4
33 0 48 -2 33 -4z m-301 -9 c-3 -3 -12 -4 -19 -1 -8 3 -5 6 6 6 11 1 17 -2 13
-5z m883 -14 c0 -5 -7 -10 -16 -10 -8 0 -12 5 -9 10 3 6 10 10 16 10 5 0 9 -4
9 -10z m158 3 c-10 -2 -28 -2 -40 0 -13 2 -5 4 17 4 22 1 32 -1 23 -4z m-611
-18 c0 -8 -4 -12 -9 -9 -5 3 -6 10 -3 15 9 13 12 11 12 -6z m-44 -2 c-7 -2
-21 -2 -30 0 -10 3 -4 5 12 5 17 0 24 -2 18 -5z m367 -1 c0 -14 -53 -20 -114
-13 -44 4 -47 6 -21 11 55 10 135 11 135 2z m182 1 c-6 -2 -9 -9 -6 -15 5 -7
-2 -9 -20 -4 -15 4 -59 -2 -105 -14 -84 -21 -109 -25 -97 -13 3 4 55 17 114
29 106 22 139 27 114 17z m-939 -10 c-7 -2 -19 -2 -25 0 -7 3 -2 5 12 5 14 0
19 -2 13 -5z m324 1 c-3 -3 -12 -4 -19 -1 -8 3 -5 6 6 6 11 1 17 -2 13 -5z
m-62 -14 c-42 -11 -118 -20 -110 -12 6 6 83 19 120 20 11 0 7 -3 -10 -8z m285
0 c-8 -5 -19 -10 -25 -10 -5 0 -3 5 5 10 8 5 20 10 25 10 6 0 3 -5 -5 -10z
m342 -20 c-23 -21 -42 -26 -42 -10 0 11 30 29 49 30 10 0 8 -6 -7 -20z m1299
-7 c13 -16 12 -17 -3 -4 -10 7 -18 15 -18 17 0 8 8 3 21 -13z m-1001 -18 c0
-8 -4 -15 -9 -15 -5 0 -11 7 -15 15 -3 9 0 15 9 15 8 0 15 -7 15 -15z m1006
-40 c-4 -14 -11 -23 -16 -20 -6 3 -10 0 -11 -7 0 -10 -2 -10 -6 -1 -4 12 28
65 36 57 2 -1 0 -15 -3 -29z m-693 -2 c-7 -2 -21 -2 -30 0 -10 3 -4 5 12 5 17
0 24 -2 18 -5z m-954 -12 c23 -6 22 -7 -12 -18 -28 -8 -35 -8 -30 0 4 7 0 6
-10 -1 -9 -8 -26 -15 -39 -16 -13 -2 -34 -6 -48 -11 l-25 -7 25 19 c45 36 92
47 139 34z m859 2 c-10 -2 -26 -2 -35 0 -10 3 -2 5 17 5 19 0 27 -2 18 -5z
m-85 -10 c-7 -2 -19 -2 -25 0 -7 3 -2 5 12 5 14 0 19 -2 13 -5z m-1296 -9 c-3
-3 -12 -4 -19 -1 -8 3 -5 6 6 6 11 1 17 -2 13 -5z m743 -14 c0 -5 -7 -10 -16
-10 -8 0 -12 5 -9 10 3 6 10 10 16 10 5 0 9 -4 9 -10z m-51 -12 c26 -16 13
-40 -39 -73 -46 -29 -50 -30 -50 -10 0 8 -4 15 -10 15 -5 0 -10 7 -10 16 0 11
5 14 18 9 11 -4 14 -3 7 4 -11 11 -55 4 -55 -10 0 -5 -6 -6 -14 -3 -14 5 -80
-9 -128 -28 -15 -5 -34 -24 -43 -40 -13 -28 -13 -29 2 -17 14 12 15 12 11 -1
-3 -8 -2 -22 3 -30 6 -13 0 -15 -38 -13 -26 2 -48 4 -50 6 -2 2 11 23 28 47
17 23 25 39 19 35 -7 -4 -2 6 10 23 13 17 27 29 32 25 6 -3 26 2 46 10 93 38
228 56 261 35z m714 5 c-7 -2 -19 -2 -25 0 -7 3 -2 5 12 5 14 0 19 -2 13 -5z
m-678 -52 c3 -5 24 -8 48 -6 28 3 37 1 27 -5 -8 -5 -24 -7 -35 -4 -16 4 -17 3
-5 -5 8 -6 24 -8 35 -5 24 8 22 5 -35 -38 -47 -35 -90 -61 -56 -34 18 14 18
16 3 16 -15 0 -16 4 -7 20 6 11 8 20 5 20 -3 0 0 10 6 23 12 22 12 22 -8 2
-14 -14 -17 -22 -9 -27 7 -5 4 -8 -7 -8 -10 0 -15 -4 -12 -10 3 -6 -1 -7 -9
-4 -8 3 -30 -1 -47 -10 -39 -19 -61 -20 -36 -2 15 12 16 14 2 20 -8 3 -15 1
-15 -4 0 -6 -4 -10 -10 -10 -5 0 -7 6 -4 14 3 8 -4 16 -18 20 -18 4 -29 -1
-51 -27 -18 -21 -25 -25 -21 -12 4 11 11 26 17 33 6 8 6 12 -2 12 -6 0 -16
-12 -22 -27 l-11 -28 -11 23 c-13 28 -6 35 38 36 19 1 35 4 35 9 0 13 30 8 30
-5 0 -7 8 -4 16 7 16 19 16 19 9 -5 -4 -14 -4 -22 0 -18 4 4 14 1 22 -7 20
-21 26 -19 75 19 47 38 54 41 63 27z m828 2 c-7 -2 -19 -2 -25 0 -7 3 -2 5 12
5 14 0 19 -2 13 -5z m-60 -10 c-7 -2 -19 -2 -25 0 -7 3 -2 5 12 5 14 0 19 -2
13 -5z m707 -3 c0 -5 -2 -10 -4 -10 -3 0 -8 5 -11 10 -3 6 -1 10 4 10 6 0 11
-4 11 -10z m-757 -7 c-7 -2 -21 -2 -30 0 -10 3 -4 5 12 5 17 0 24 -2 18 -5z
m-86 -14 c-21 -5 -47 -14 -58 -20 -11 -5 -30 -7 -42 -3 -18 6 -12 10 33 20 30
6 66 12 80 12 17 0 12 -3 -13 -9z m-1413 -14 c3 -8 12 -12 21 -9 8 3 15 1 15
-5 0 -6 -4 -11 -10 -11 -5 0 -10 -8 -10 -17 -1 -11 -6 -5 -15 14 -8 19 -22 33
-37 36 -21 4 -21 4 3 6 16 0 29 -5 33 -14z m-17 -77 c18 -20 4 -25 -14 -7 -9
9 -18 8 -37 -5 -25 -16 -26 -16 -25 6 0 13 3 17 6 10 8 -21 43 16 44 47 2 24
2 23 6 -4 3 -16 12 -38 20 -47z m1227 53 c3 -5 -2 -15 -11 -22 -14 -12 -16
-12 -9 0 7 10 3 12 -15 7 -24 -7 -24 -7 1 8 30 18 28 18 34 7z m836 -41 c-11
-22 -22 -40 -25 -40 -7 0 14 52 27 67 19 24 19 13 -2 -27z m-1690 -40 c0 -5
-5 -10 -11 -10 -5 0 -7 5 -4 10 3 6 8 10 11 10 2 0 4 -4 4 -10z m-573 -22 c-3
-8 -6 -5 -6 6 -1 11 2 17 5 13 3 -3 4 -12 1 -19z m167 -17 c-2 -3 -12 3 -22
13 -16 17 -16 18 5 5 12 -7 20 -15 17 -18z m1497 13 c-25 -8 -47 -12 -49 -9
-5 5 56 23 78 23 8 0 -5 -6 -29 -14z m-1606 -34 c13 -6 15 -9 5 -9 -8 0 -22 4
-30 9 -18 12 -2 12 25 0z m2288 -100 c3 -11 3 -20 1 -20 -2 0 -8 9 -14 20 -6
11 -7 20 -2 20 6 0 12 -9 15 -20z m-223 -20 c0 -5 -17 -14 -37 -19 -70 -18
-583 -101 -625 -101 -4 0 -8 4 -8 9 0 5 21 12 48 16 26 4 61 9 77 12 17 2 39
6 50 8 22 3 90 14 255 40 94 15 231 40 238 44 1 0 2 -3 2 -9z m-22 -95 c-3 -3
-72 -2 -154 2 l-149 8 140 25 140 26 14 -28 c8 -15 12 -30 9 -33z m-1548 15
c33 -33 38 -50 16 -50 -16 0 -27 14 -44 53 -15 35 -8 34 28 -3z m1865 0 c-9
-16 -18 -30 -21 -30 -2 0 0 9 6 20 6 11 7 20 3 20 -7 0 17 19 25 20 1 0 -4
-13 -13 -30z m-1038 -12 c-3 -7 -5 -2 -5 12 0 14 2 19 5 13 2 -7 2 -19 0 -25z
m-192 -40 c14 -6 25 -15 25 -20 0 -4 -9 -3 -20 4 -17 11 -22 10 -30 -2 -7 -11
-9 -10 -7 8 2 26 -1 25 32 10z m-645 -87 c0 -5 -13 -9 -30 -9 -16 1 -30 5 -30
10 0 4 14 8 30 8 17 0 30 -4 30 -9z m733 -63 c-2 -5 -14 -13 -26 -20 -19 -10
-20 -9 -9 4 10 13 10 17 0 21 -7 2 -1 4 14 3 14 0 24 -4 21 -8z m-56 -14 c-3
-3 -12 -4 -19 -1 -8 3 -5 6 6 6 11 1 17 -2 13 -5z"/>
<path d="M460 1700 c0 -5 5 -10 11 -10 5 0 7 5 4 10 -3 6 -8 10 -11 10 -2 0
-4 -4 -4 -10z"/>
<path d="M2160 1694 c0 -10 5 -14 16 -10 10 4 13 2 8 -6 -5 -7 -2 -9 9 -5 8 3
21 -1 27 -9 8 -8 31 -14 58 -14 l46 0 -29 30 c-25 26 -36 30 -82 30 -42 0 -53
-3 -53 -16z"/>
<path d="M2570 1648 c0 -32 4 -58 10 -58 25 0 -6 -29 -33 -32 -32 -3 -32 -3
-35 -68 -3 -64 -2 -66 46 -130 51 -69 102 -151 102 -166 0 -4 -7 2 -16 14 -8
12 -33 31 -54 42 -21 11 -40 25 -43 32 -3 7 -6 4 -6 -7 -1 -21 102 -103 122
-97 5 2 7 -4 3 -13 -3 -9 -2 -13 4 -10 14 9 50 -19 83 -62 l27 -37 0 82 c0 68
2 80 15 76 8 -4 15 -1 15 4 0 6 -8 13 -17 15 -14 4 -13 5 4 6 12 0 26 -5 30
-12 5 -10 21 -12 48 -9 32 4 36 6 20 13 -15 6 -11 8 18 8 l37 1 0 180 c0 113
-4 180 -10 180 -5 0 -10 5 -10 11 0 5 4 8 9 5 5 -3 9 17 9 44 1 43 -2 50 -19
50 -17 0 -19 -7 -19 -70 l0 -70 -72 0 -73 0 0 47 c0 31 -4 47 -12 46 -14 -3
-38 25 -29 34 4 4 20 -1 35 -10 35 -21 41 -21 41 -3 0 9 -7 12 -20 9 -11 -3
-20 0 -20 6 0 6 -17 11 -40 11 -36 0 -40 -3 -40 -24 0 -17 5 -23 17 -22 12 0
19 -7 21 -21 4 -26 -6 -27 -75 -14 -28 5 -46 4 -54 -3 -7 -7 -6 -3 2 11 7 12
25 24 41 27 20 4 28 12 28 26 0 27 -18 26 -23 -2 l-4 -23 -2 22 c-1 18 -6 22
-31 20 -30 -2 -30 -3 -30 -59z m367 32 c-1 -21 -10 -18 -13 5 -1 8 2 15 6 15
5 0 8 -9 7 -20z m3 -40 c0 -5 -2 -10 -4 -10 -3 0 -8 5 -11 10 -3 6 -1 10 4 10
6 0 11 -4 11 -10z m-314 -55 c-4 -24 -16 -30 -16 -7 0 12 4 22 9 22 5 0 8 -7
7 -15z m241 -351 c-3 -3 -12 -4 -19 -1 -8 3 -5 6 6 6 11 1 17 -2 13 -5z"/>
<path d="M2253 1513 c-33 -4 -33 -5 -33 -59 0 -30 4 -53 8 -50 5 3 26 -1 48
-9 34 -12 85 -20 59 -9 -6 2 -9 32 -7 69 4 72 9 68 -75 58z"/>
<path d="M2475 1329 c-4 -6 -5 -12 -2 -15 2 -3 7 2 10 11 7 17 1 20 -8 4z"/>
<path d="M2928 1223 c7 -3 16 -2 19 1 4 3 -2 6 -13 5 -11 0 -14 -3 -6 -6z"/>
<path d="M2615 1154 c-20 -15 -12 -17 19 -5 11 4 15 10 10 13 -5 4 -18 0 -29
-8z"/>
<path d="M2600 1120 c19 -13 30 -13 30 0 0 6 -10 10 -22 10 -19 0 -20 -2 -8
-10z"/>
<path d="M292 293 c-6 -3 -10 -9 -6 -14 3 -5 -5 -9 -18 -10 l-23 0 24 -10 c17
-6 27 -6 31 1 4 6 14 8 23 4 13 -5 16 -2 11 11 -6 15 -4 16 14 6 27 -15 36
-14 21 2 -12 12 -53 18 -77 10z"/>
<path d="M370 295 c0 -7 30 -13 34 -7 3 4 -4 9 -15 9 -10 1 -19 0 -19 -2z"/>
<path d="M206 257 c-21 -7 -25 -12 -15 -18 8 -5 21 -8 29 -8 10 0 9 3 -5 10
-15 7 -10 8 20 4 22 -2 33 -2 25 2 -8 3 -17 9 -20 13 -3 4 -18 3 -34 -3z"/>
<path d="M113 237 c1 -5 17 -11 35 -12 17 -2 30 1 27 5 -7 12 -66 18 -62 7z"/>
<path d="M1688 143 c6 -2 18 -2 25 0 6 3 1 5 -13 5 -14 0 -19 -2 -12 -5z"/>
<path d="M2935 67 c-6 -7 -18 -24 -28 -39 l-17 -28 30 0 c28 0 30 2 30 40 0
44 0 45 -15 27z"/>
<path d="M465 10 c-16 -7 -11 -9 22 -9 23 -1 45 3 48 9 8 12 -42 12 -70 0z"/>
</g>
</svg>
