<?xml version="1.0" standalone="no"?>
<!DOCTYPE svg PUBLIC "-//W3C//DTD SVG 20010904//EN"
 "http://www.w3.org/TR/2001/REC-SVG-20010904/DTD/svg10.dtd">
<svg version="1.0" xmlns="http://www.w3.org/2000/svg"
 width="1024.000000pt" height="1024.000000pt" viewBox="0 0 1024.000000 1024.000000"
 preserveAspectRatio="xMidYMid meet">

<g transform="translate(0.000000,1024.000000) scale(0.100000,-0.100000)"
fill="#000000" stroke="none">
<path d="M5160 7064 c-259 -30 -531 -118 -924 -300 -132 -61 -346 -177 -346
-188 0 -2 69 -1 153 2 l152 4 75 48 c143 90 424 222 600 280 209 68 536 85
963 50 327 -27 516 -64 1172 -228 33 -8 17 -10 -95 -11 -218 -2 -467 -32 -770
-91 -334 -66 -588 -96 -1005 -121 -238 -14 -837 -6 -1205 16 -601 36 -981 2
-1362 -121 -231 -75 -542 -224 -627 -300 -68 -61 -69 -90 -5 -197 41 -68 46
-83 42 -121 -3 -24 -17 -69 -32 -101 -32 -71 -34 -110 -5 -126 20 -10 160 -21
422 -32 54 -2 96 -2 93 0 -2 2 -93 17 -202 33 -292 43 -264 35 -264 75 0 18 7
64 16 102 20 85 13 130 -32 210 -40 71 -41 82 -14 115 22 28 200 119 362 184
107 43 294 104 318 104 7 0 -13 -17 -46 -38 -32 -21 -89 -66 -126 -100 -81
-73 -97 -82 -213 -117 -145 -44 -134 -49 43 -20 118 20 172 48 292 154 130
114 192 145 347 176 198 40 386 49 718 35 160 -7 536 -14 836 -17 901 -9 1225
19 1839 156 389 86 453 95 720 95 253 1 243 2 625 -69 132 -25 264 -48 294
-52 44 -7 55 -12 56 -28 5 -62 21 -102 72 -172 76 -106 93 -141 93 -188 -1
-54 -28 -111 -103 -214 -35 -47 -83 -117 -106 -154 -49 -77 -71 -92 -206 -132
-71 -21 -97 -34 -123 -62 -19 -19 -32 -36 -30 -39 7 -7 252 63 301 86 74 35
112 77 202 225 152 249 162 356 47 521 -27 38 -51 77 -55 87 -9 24 6 53 55
103 l39 41 -163 6 c-273 10 -580 68 -1000 188 -231 66 -553 145 -708 173 -287
52 -459 67 -815 71 -181 2 -346 1 -365 -1z"/>
<path d="M6385 6429 c-93 -39 -206 -79 -250 -89 -80 -19 -270 -32 -685 -45
-274 -9 -1077 -57 -1335 -80 -354 -31 -425 -38 -422 -42 2 -2 141 1 308 7 395
13 1023 28 1464 35 484 9 616 18 706 49 75 26 206 98 327 178 116 78 108 77
-113 -13z"/>
<path d="M6929 6351 c-90 -29 -156 -71 -224 -142 -122 -130 -176 -305 -145
-469 13 -68 53 -157 88 -193 55 -58 125 -72 78 -16 -62 73 -104 223 -92 322
16 123 81 248 167 321 53 45 153 88 235 99 177 26 360 -56 454 -203 93 -145
93 -356 1 -502 -27 -43 -30 -58 -9 -58 17 0 90 76 110 114 48 94 62 238 33
345 -49 185 -203 336 -391 385 -84 22 -233 20 -305 -3z"/>
<path d="M2930 6307 c-126 -43 -208 -108 -281 -219 -108 -169 -109 -402 -2
-542 40 -52 68 -75 78 -64 4 3 -7 25 -24 48 -124 172 -98 416 61 573 69 68
121 98 213 122 342 89 645 -251 526 -590 -11 -31 -34 -79 -52 -106 -17 -28
-29 -52 -26 -55 10 -10 64 25 97 62 57 66 83 137 88 245 5 109 -9 172 -60 273
-58 114 -191 220 -327 260 -81 24 -211 21 -291 -7z"/>
<path d="M7095 6158 c-2 -7 -9 -58 -15 -113 -15 -135 -19 -152 -38 -160 -10
-3 -61 16 -130 50 -62 30 -118 55 -123 55 -30 0 5 -36 100 -105 61 -42 112
-83 114 -90 3 -6 -27 -62 -65 -124 -95 -150 -81 -165 37 -37 63 69 94 96 111
96 24 0 78 -58 154 -163 18 -26 37 -47 42 -47 18 0 6 35 -47 134 -65 121 -68
142 -22 161 133 56 230 106 220 116 -7 7 -45 1 -125 -20 -132 -36 -153 -37
-163 -13 -3 9 -11 74 -17 145 -10 114 -21 151 -33 115z m48 -310 c9 -11 17
-26 17 -33 0 -19 -32 -52 -56 -59 -28 -8 -74 28 -74 59 0 31 46 67 74 59 12
-3 29 -15 39 -26z"/>
<path d="M3070 6007 c0 -110 -2 -126 -19 -142 -19 -16 -25 -16 -133 18 -135
42 -153 46 -153 30 0 -7 42 -33 94 -58 107 -52 151 -81 151 -99 0 -6 -27 -58
-61 -114 -33 -55 -59 -106 -57 -112 2 -7 41 29 87 79 72 80 87 91 116 91 27 0
42 -10 89 -61 32 -34 64 -72 73 -85 17 -26 33 -32 33 -11 0 6 -25 55 -55 107
-30 52 -55 103 -55 112 0 23 34 48 140 103 51 26 90 52 90 60 0 8 -1 15 -2 15
-2 0 -57 -20 -122 -44 -90 -34 -124 -42 -138 -35 -10 5 -18 15 -18 22 0 7 -7
59 -15 117 -8 58 -15 111 -15 118 0 6 -7 12 -15 12 -13 0 -15 -20 -15 -123z
m77 -169 c30 -28 29 -63 -2 -93 -69 -70 -164 24 -98 98 22 24 72 22 100 -5z"/>
<path d="M5385 5654 c-854 -40 -1630 -91 -1670 -110 -5 -2 215 -2 489 1 275 3
897 5 1383 5 485 0 883 4 883 8 0 15 -211 71 -345 92 -152 23 -322 24 -740 4z"/>
<path d="M4602 5173 c-280 -3 -303 -5 -300 -20 2 -12 17 -20 45 -25 54 -9 79
-23 101 -55 16 -25 17 -70 17 -578 0 -527 -1 -551 -19 -582 -21 -34 -46 -47
-108 -58 -32 -5 -38 -10 -38 -31 l0 -24 288 2 c274 3 287 4 287 22 0 15 -14
23 -64 36 -113 31 -120 51 -121 321 l0 186 158 6 c183 7 280 25 378 73 80 38
147 103 186 182 20 41 23 62 23 167 0 108 -3 125 -25 170 -48 98 -150 171
-270 193 -79 15 -194 18 -538 15z m436 -98 c72 -22 126 -72 153 -143 18 -48
20 -71 16 -147 -6 -108 -26 -169 -73 -224 -72 -83 -180 -121 -351 -121 l-93 0
0 331 0 332 148 -6 c92 -3 167 -12 200 -22z"/>
<path d="M2892 5153 c2 -13 17 -20 49 -24 63 -9 88 -25 105 -64 19 -46 20
-1070 1 -1124 -15 -44 -50 -69 -107 -79 -39 -6 -45 -11 -48 -35 l-3 -27 540 0
540 0 10 38 c21 76 69 336 65 344 -3 4 -16 8 -29 8 -19 0 -29 -12 -53 -65 -18
-37 -52 -86 -79 -113 -92 -92 -201 -121 -451 -122 l-153 0 3 588 c2 450 6 592
16 609 13 23 66 43 115 43 20 0 27 5 27 20 0 20 -7 20 -276 20 -256 0 -275 -1
-272 -17z"/>
<path d="M5700 5146 c0 -21 6 -24 51 -29 63 -8 96 -28 106 -65 7 -29 -83
-1041 -98 -1095 -15 -54 -74 -97 -135 -97 -20 0 -24 -5 -24 -30 l0 -30 223 2
c216 3 222 4 219 23 -5 25 -15 31 -63 39 -22 4 -53 19 -71 35 -33 29 -33 30
-31 116 2 48 14 225 27 394 14 168 28 350 32 404 4 53 10 97 14 97 4 0 16 -21
28 -47 11 -27 116 -267 235 -534 118 -267 218 -496 222 -508 6 -19 13 -22 48
-19 l41 3 89 215 c108 262 275 661 348 830 l54 125 7 -95 c14 -189 49 -797 51
-874 1 -76 0 -79 -30 -107 -18 -15 -49 -31 -70 -34 -59 -10 -63 -13 -63 -40
l0 -25 283 2 c273 3 282 4 282 23 0 16 -11 22 -53 31 -30 7 -65 22 -78 35 -44
41 -41 22 -89 744 -14 204 -25 385 -25 403 0 50 42 87 108 96 36 5 52 11 52
21 0 13 -30 15 -190 15 -188 0 -191 0 -200 -22 -5 -13 -58 -135 -118 -273 -60
-137 -158 -366 -217 -508 -60 -141 -113 -256 -118 -254 -5 1 -61 124 -126 272
-64 149 -168 386 -230 528 l-114 257 -188 0 -189 0 0 -24z"/>
<path d="M1850 3255 l0 -145 95 0 c95 0 95 0 95 25 0 24 -2 25 -70 25 l-70 0
0 120 0 120 -25 0 -25 0 0 -145z"/>
<path d="M2140 3286 c0 -131 12 -158 81 -176 51 -14 111 2 138 37 18 22 21 40
21 139 l0 114 -25 0 -25 0 0 -103 c0 -90 -3 -106 -20 -125 -26 -28 -73 -29
-100 -2 -17 17 -20 33 -20 125 l0 105 -25 0 -25 0 0 -114z"/>
<path d="M2480 3393 c0 -5 20 -37 44 -72 l44 -65 -49 -73 -50 -73 31 0 c25 0
35 8 61 50 17 28 34 50 37 50 4 0 20 -23 37 -50 24 -41 34 -50 57 -50 33 0 34
3 9 38 -10 15 -30 46 -44 68 l-26 42 45 61 c24 33 44 65 44 71 0 5 -11 10 -25
10 -19 0 -33 -12 -57 -50 -18 -27 -35 -50 -38 -50 -3 0 -19 22 -35 50 -24 40
-35 50 -57 50 -16 0 -28 -3 -28 -7z"/>
<path d="M2830 3284 c0 -114 0 -116 29 -145 26 -26 36 -29 90 -29 49 0 65 4
88 24 28 24 28 25 28 143 0 115 -1 118 -22 121 -22 3 -23 1 -23 -93 0 -91 -9
-131 -34 -147 -21 -14 -66 -8 -86 12 -17 17 -20 33 -20 125 l0 105 -25 0 -25
0 0 -116z"/>
<path d="M3190 3255 l0 -145 25 0 c24 0 25 3 25 55 0 52 1 55 25 55 20 0 31
-11 56 -55 26 -47 35 -55 60 -55 16 0 29 2 29 5 0 3 -14 27 -30 54 l-31 49 26
26 c29 29 33 79 10 113 -19 27 -72 43 -142 43 l-53 0 0 -145z m144 79 c35 -34
6 -74 -55 -74 l-39 0 0 45 0 45 39 0 c23 0 46 -7 55 -16z"/>
<path d="M3493 3387 c3 -7 28 -48 56 -91 45 -70 51 -85 51 -132 0 -51 1 -54
25 -54 24 0 25 3 25 59 0 55 4 67 50 138 27 43 50 81 50 86 0 4 -11 7 -25 7
-21 0 -33 -12 -63 -60 -20 -33 -39 -60 -42 -60 -3 0 -22 27 -42 60 -30 49 -42
60 -64 60 -17 0 -24 -4 -21 -13z"/>
<path d="M4030 3256 l0 -146 25 0 c23 0 25 3 25 50 l0 50 40 0 c63 0 106 22
119 63 25 75 -21 118 -135 125 l-74 5 0 -147z m148 82 c7 -7 12 -21 12 -33 0
-32 -20 -45 -67 -45 l-43 0 0 45 0 45 43 0 c24 0 48 -5 55 -12z"/>
<path d="M4350 3256 l0 -146 25 0 c24 0 25 3 25 55 0 52 1 55 24 55 19 0 32
-12 58 -55 27 -45 37 -55 60 -55 16 0 28 3 28 7 0 3 -14 28 -31 55 l-31 48 26
21 c23 18 27 28 24 67 -4 64 -33 83 -132 90 l-76 5 0 -147z m148 82 c18 -18
14 -56 -7 -68 -11 -5 -36 -10 -55 -10 -36 0 -36 0 -36 45 l0 45 43 0 c24 0 48
-5 55 -12z"/>
<path d="M4680 3255 l0 -145 106 0 c104 0 105 0 102 23 -3 20 -9 22 -74 25
l-72 3 -4 34 -4 35 68 0 c66 0 68 1 68 25 0 24 -2 25 -65 25 l-65 0 0 35 0 35
70 0 c68 0 70 1 70 25 l0 25 -100 0 -100 0 0 -145z"/>
<path d="M5000 3256 l0 -146 25 0 c24 0 24 1 27 107 l3 106 40 -104 c26 -67
45 -104 55 -104 10 0 30 38 57 105 l42 105 1 -107 0 -108 25 0 25 0 0 145 0
145 -33 0 c-33 0 -34 -2 -71 -95 -21 -52 -41 -95 -44 -95 -4 0 -23 42 -43 93
-36 91 -37 92 -73 95 l-36 3 0 -145z"/>
<path d="M5430 3255 l0 -145 25 0 25 0 0 145 0 145 -25 0 -25 0 0 -145z"/>
<path d="M5602 3280 c3 -105 5 -122 24 -140 45 -45 149 -45 190 1 16 18 20 40
22 140 l4 119 -26 0 -26 0 0 -105 c0 -118 -13 -145 -70 -145 -57 0 -70 27 -70
145 l0 105 -26 0 -26 0 4 -120z"/>
<path d="M5960 3256 l0 -146 25 0 25 0 1 113 c0 103 1 109 13 77 40 -107 79
-190 91 -190 7 0 32 48 56 108 l44 107 3 -107 c3 -107 3 -108 27 -108 l25 0 0
146 0 145 -37 -3 c-36 -3 -37 -4 -75 -97 -21 -52 -40 -96 -42 -98 -2 -2 -21
40 -43 94 -39 98 -39 98 -76 101 l-37 3 0 -145z"/>
<path d="M6570 3256 l0 -146 25 0 c24 0 24 1 27 108 l3 107 40 -102 c28 -72
45 -103 56 -103 12 0 28 30 55 102 l39 103 3 -108 c3 -106 3 -107 27 -107 l25
0 0 145 0 145 -34 0 c-33 0 -35 -2 -70 -86 -20 -47 -36 -91 -36 -97 0 -23 -19
11 -53 93 -34 83 -36 85 -71 88 l-36 3 0 -145z"/>
<path d="M7053 3380 c-82 -49 -91 -171 -19 -237 32 -30 42 -33 97 -33 59 0 64
2 100 39 49 52 58 102 30 165 -12 28 -32 53 -53 66 -43 26 -113 26 -155 0z
m117 -35 c37 -19 50 -43 50 -95 0 -85 -93 -131 -154 -75 -22 20 -26 33 -26 78
0 43 4 58 23 74 39 36 65 40 107 18z"/>
<path d="M7356 3384 c-10 -25 2 -34 45 -34 l39 0 0 -120 0 -120 25 0 25 0 0
120 0 120 45 0 c41 0 45 2 45 25 l0 25 -109 0 c-90 0 -110 -3 -115 -16z"/>
<path d="M7735 3391 c-11 -5 -33 -23 -49 -40 -40 -41 -48 -129 -17 -178 41
-65 136 -86 204 -45 84 53 90 188 10 246 -29 22 -116 31 -148 17z m101 -47
c92 -44 54 -194 -49 -194 -91 0 -118 159 -33 196 40 17 42 17 82 -2z"/>
<path d="M8050 3255 l0 -145 25 0 c24 0 25 3 25 55 0 52 1 55 25 55 20 0 33
-12 60 -55 30 -47 40 -55 66 -55 33 0 33 -1 -13 68 l-29 42 26 23 c19 16 27
33 28 59 2 65 -50 98 -153 98 l-60 0 0 -145z m148 83 c7 -7 12 -21 12 -33 0
-32 -20 -45 -67 -45 l-43 0 0 45 0 45 43 0 c24 0 48 -5 55 -12z"/>
<path d="M8399 3371 c-53 -53 -31 -108 55 -139 57 -20 76 -43 57 -66 -17 -20
-57 -20 -93 -2 -24 12 -29 12 -40 -1 -21 -26 23 -53 89 -53 67 0 103 29 103
83 0 41 -19 59 -85 84 -41 15 -50 23 -50 43 0 21 5 26 32 28 18 2 41 -1 51 -7
15 -8 23 -7 33 5 21 25 -21 54 -78 54 -36 0 -50 -6 -74 -29z"/>
</g>
</svg>
